REM DIRINDEX 1\2,1\3,1\4,1\5,1\6
REM DIRNAME cjc030,folder01,folder02,folder03,folder04,folder05
TITLE ""
FILE "Disc4Track49.mp3" MP3
  TRACK 01 AUDIO
    TITLE "3:cjc030_07492"
    INDEX 01 00:00:00
  TRACK 02 AUDIO
    TITLE "0:"
    INDEX 01 00:01:07
  TRACK 03 AUDIO
    TITLE "4:cjc030_07493"
    INDEX 01 00:01:15
  TRACK 04 AUDIO
    TITLE "0:"
    INDEX 01 00:03:08
  TRACK 05 AUDIO
    TITLE "5:cjc030_07494"
    INDEX 01 00:03:19
  TRACK 06 AUDIO
    TITLE "0:"
    INDEX 01 00:04:25
  TRACK 07 AUDIO
    TITLE "6:cjc030_07495"
    INDEX 01 00:04:40
  TRACK 08 AUDIO
    TITLE "0:"
    INDEX 01 00:08:09
  TRACK 09 AUDIO
    TITLE "3:cjc030_07496"
    INDEX 01 00:08:58
  TRACK 10 AUDIO
    TITLE "0:"
    INDEX 01 00:10:00
  TRACK 11 AUDIO
    TITLE "4:cjc030_07497"
    INDEX 01 00:10:06
  TRACK 12 AUDIO
    TITLE "0:"
    INDEX 01 00:11:56
  TRACK 13 AUDIO
    TITLE "5:cjc030_07498"
    INDEX 01 00:11:64
  TRACK 14 AUDIO
    TITLE "0:"
    INDEX 01 00:13:04
  TRACK 15 AUDIO
    TITLE "6:cjc030_07499"
    INDEX 01 00:13:18
  TRACK 16 AUDIO
    TITLE "0:"
    INDEX 01 00:16:67
  TRACK 17 AUDIO
    TITLE "3:cjc030_07500"
    INDEX 01 00:17:41
  TRACK 18 AUDIO
    TITLE "0:"
    INDEX 01 00:18:62
  TRACK 19 AUDIO
    TITLE "4:cjc030_07501"
    INDEX 01 00:18:70
  TRACK 20 AUDIO
    TITLE "0:"
    INDEX 01 00:21:25
  TRACK 21 AUDIO
    TITLE "5:cjc030_07502"
    INDEX 01 00:21:33
  TRACK 22 AUDIO
    TITLE "0:"
    INDEX 01 00:22:54
  TRACK 23 AUDIO
    TITLE "6:cjc030_07503"
    INDEX 01 00:22:68
  TRACK 24 AUDIO
    TITLE "0:"
    INDEX 01 00:26:07
  TRACK 25 AUDIO
    TITLE "3:cjc030_07504"
    INDEX 01 00:26:50
  TRACK 26 AUDIO
    TITLE "0:"
    INDEX 01 00:28:00
  TRACK 27 AUDIO
    TITLE "4:cjc030_07505"
    INDEX 01 00:28:06
  TRACK 28 AUDIO
    TITLE "0:"
    INDEX 01 00:29:13
  TRACK 29 AUDIO
    TITLE "5:cjc030_07506"
    INDEX 01 00:29:19
  TRACK 30 AUDIO
    TITLE "0:"
    INDEX 01 00:30:42
  TRACK 31 AUDIO
    TITLE "6:cjc030_07507"
    INDEX 01 00:30:57
  TRACK 32 AUDIO
    TITLE "0:"
    INDEX 01 00:34:06
  TRACK 33 AUDIO
    TITLE "3:cjc030_07508"
    INDEX 01 00:34:53
  TRACK 34 AUDIO
    TITLE "0:"
    INDEX 01 00:36:05
  TRACK 35 AUDIO
    TITLE "4:cjc030_07509"
    INDEX 01 00:36:13
  TRACK 36 AUDIO
    TITLE "0:"
    INDEX 01 00:37:44
  TRACK 37 AUDIO
    TITLE "5:cjc030_07510"
    INDEX 01 00:37:52
  TRACK 38 AUDIO
    TITLE "0:"
    INDEX 01 00:39:03
  TRACK 39 AUDIO
    TITLE "6:cjc030_07511"
    INDEX 01 00:39:15
  TRACK 40 AUDIO
    TITLE "0:"
    INDEX 01 00:42:29
  TRACK 41 AUDIO
    TITLE "3:cjc030_07512"
    INDEX 01 00:43:01
  TRACK 42 AUDIO
    TITLE "0:"
    INDEX 01 00:44:34
  TRACK 43 AUDIO
    TITLE "4:cjc030_07513"
    INDEX 01 00:44:40
  TRACK 44 AUDIO
    TITLE "0:"
    INDEX 01 00:45:47
  TRACK 45 AUDIO
    TITLE "5:cjc030_07514"
    INDEX 01 00:45:55
  TRACK 46 AUDIO
    TITLE "0:"
    INDEX 01 00:47:13
  TRACK 47 AUDIO
    TITLE "3:cjc030_07515"
    INDEX 01 00:47:68
  TRACK 48 AUDIO
    TITLE "0:"
    INDEX 01 00:48:71
  TRACK 49 AUDIO
    TITLE "4:cjc030_07516"
    INDEX 01 00:49:04
  TRACK 50 AUDIO
    TITLE "0:"
    INDEX 01 00:52:20
  TRACK 51 AUDIO
    TITLE "5:cjc030_07517"
    INDEX 01 00:52:28
  TRACK 52 AUDIO
    TITLE "0:"
    INDEX 01 00:53:31
  TRACK 53 AUDIO
    TITLE "6:cjc030_07518"
    INDEX 01 00:53:45
  TRACK 54 AUDIO
    TITLE "0:"
    INDEX 01 00:56:63
  TRACK 55 AUDIO
    TITLE "3:cjc030_07519"
    INDEX 01 00:57:41
  TRACK 56 AUDIO
    TITLE "0:"
    INDEX 01 00:58:42
  TRACK 57 AUDIO
    TITLE "4:cjc030_07520"
    INDEX 01 00:58:48
  TRACK 58 AUDIO
    TITLE "0:"
    INDEX 01 01:00:45
  TRACK 59 AUDIO
    TITLE "5:cjc030_07521"
    INDEX 01 01:00:49
  TRACK 60 AUDIO
    TITLE "0:"
    INDEX 01 01:01:52
  TRACK 61 AUDIO
    TITLE "6:cjc030_07522"
    INDEX 01 01:01:68
  TRACK 62 AUDIO
    TITLE "0:"
    INDEX 01 01:04:15
  TRACK 63 AUDIO
    TITLE "3:cjc030_07523"
    INDEX 01 01:04:64
  TRACK 64 AUDIO
    TITLE "0:"
    INDEX 01 01:05:68
  TRACK 65 AUDIO
    TITLE "4:cjc030_07524"
    INDEX 01 01:06:00
  TRACK 66 AUDIO
    TITLE "0:"
    INDEX 01 01:10:47
  TRACK 67 AUDIO
    TITLE "5:cjc030_07525"
    INDEX 01 01:10:55
  TRACK 68 AUDIO
    TITLE "0:"
    INDEX 01 01:11:58
  TRACK 69 AUDIO
    TITLE "6:cjc030_07526"
    INDEX 01 01:11:70
  TRACK 70 AUDIO
    TITLE "0:"
    INDEX 01 01:14:74
  TRACK 71 AUDIO
    TITLE "6:cjc030_07527"
    INDEX 01 01:15:31
  TRACK 72 AUDIO
    TITLE "0:"
    INDEX 01 01:17:10
  TRACK 73 AUDIO
    TITLE "3:cjc030_07528"
    INDEX 01 01:17:59
  TRACK 74 AUDIO
    TITLE "0:"
    INDEX 01 01:18:68
  TRACK 75 AUDIO
    TITLE "4:cjc030_07529"
    INDEX 01 01:19:03
  TRACK 76 AUDIO
    TITLE "0:"
    INDEX 01 01:21:04
  TRACK 77 AUDIO
    TITLE "5:cjc030_07530"
    INDEX 01 01:21:12
  TRACK 78 AUDIO
    TITLE "0:"
    INDEX 01 01:22:21
  TRACK 79 AUDIO
    TITLE "6:cjc030_07531"
    INDEX 01 01:22:35
  TRACK 80 AUDIO
    TITLE "0:"
    INDEX 01 01:24:00
  TRACK 81 AUDIO
    TITLE "3:cjc030_07532"
    INDEX 01 01:24:47
  TRACK 82 AUDIO
    TITLE "0:"
    INDEX 01 01:25:57
  TRACK 83 AUDIO
    TITLE "4:cjc030_07533"
    INDEX 01 01:25:64
  TRACK 84 AUDIO
    TITLE "0:"
    INDEX 01 01:28:20
  TRACK 85 AUDIO
    TITLE "5:cjc030_07534"
    INDEX 01 01:28:29
  TRACK 86 AUDIO
    TITLE "0:"
    INDEX 01 01:29:37
  TRACK 87 AUDIO
    TITLE "6:cjc030_07535"
    INDEX 01 01:29:48
  TRACK 88 AUDIO
    TITLE "0:"
    INDEX 01 01:31:34
  TRACK 89 AUDIO
    TITLE "3:cjc030_07536"
    INDEX 01 01:32:10
  TRACK 90 AUDIO
    TITLE "0:"
    INDEX 01 01:33:25
  TRACK 91 AUDIO
    TITLE "4:cjc030_07537"
    INDEX 01 01:33:34
  TRACK 92 AUDIO
    TITLE "0:"
    INDEX 01 01:34:32
  TRACK 93 AUDIO
    TITLE "5:cjc030_07538"
    INDEX 01 01:34:40
  TRACK 94 AUDIO
    TITLE "0:"
    INDEX 01 01:35:57
  TRACK 95 AUDIO
    TITLE "3:cjc030_07539"
    INDEX 01 01:36:37
  TRACK 96 AUDIO
    TITLE "0:"
    INDEX 01 01:37:46
  TRACK 97 AUDIO
    TITLE "4:cjc030_07540"
    INDEX 01 01:37:54
  TRACK 98 AUDIO
    TITLE "0:"
    INDEX 01 01:41:65
  TRACK 99 AUDIO
    TITLE "5:cjc030_07541"
    INDEX 01 01:42:04
  TRACK 100 AUDIO
    TITLE "0:"
    INDEX 01 01:43:09
  TRACK 101 AUDIO
    TITLE "3:cjc030_07542"
    INDEX 01 01:43:68
  TRACK 102 AUDIO
    TITLE "0:"
    INDEX 01 01:45:14
  TRACK 103 AUDIO
    TITLE "4:cjc030_07543"
    INDEX 01 01:45:22
  TRACK 104 AUDIO
    TITLE "0:"
    INDEX 01 01:47:66
  TRACK 105 AUDIO
    TITLE "5:cjc030_07544"
    INDEX 01 01:48:01
  TRACK 106 AUDIO
    TITLE "0:"
    INDEX 01 01:49:22
  TRACK 107 AUDIO
    TITLE "6:cjc030_07545"
    INDEX 01 01:49:35
  TRACK 108 AUDIO
    TITLE "0:"
    INDEX 01 01:52:34
  TRACK 109 AUDIO
    TITLE "3:cjc030_07546"
    INDEX 01 01:53:08
  TRACK 110 AUDIO
    TITLE "0:"
    INDEX 01 01:54:13
  TRACK 111 AUDIO
    TITLE "4:cjc030_07547"
    INDEX 01 01:54:19
  TRACK 112 AUDIO
    TITLE "0:"
    INDEX 01 01:56:39
  TRACK 113 AUDIO
    TITLE "5:cjc030_07548"
    INDEX 01 01:56:49
  TRACK 114 AUDIO
    TITLE "0:"
    INDEX 01 01:57:51
  TRACK 115 AUDIO
    TITLE "6:cjc030_07549"
    INDEX 01 01:57:66
  TRACK 116 AUDIO
    TITLE "0:"
    INDEX 01 02:02:22
